STARTFONT 2.1
FONT -WRI-Mathematica2-Bold-R-Normal--24-240-75-75-p-140-Adobe-FontSpecific
SIZE 24 75 75
FONTBOUNDINGBOX 62 150 -1 -97
STARTPROPERTIES 16
FOUNDRY "WRI"
FAMILY_NAME "Mathematica2"
WEIGHT_NAME "Bold"
SLANT "R"
SETWIDTH_NAME "Normal"
PIXEL_SIZE 24
POINT_SIZE 240
RESOLUTION_X 75
RESOLUTION_Y 75
SPACING "p"
AVERAGE_WIDTH 140
CHARSET_REGISTRY "Adobe"
CHARSET_ENCODING "FontSpecific"
FONT_DESCENT 97
FONT_ASCENT 53
DEFAULT_CHAR 32
ENDPROPERTIES
CHARS 223
STARTCHAR Space
ENCODING 32
SWIDTH 189 0
DWIDTH 5 0
BBX 0 0 0 0
BITMAP
ENDCHAR
STARTCHAR Radical1Extens
ENCODING 33
SWIDTH 230 0
DWIDTH 6 0
BBX 7 2 -1 5
BITMAP
fe
fe
ENDCHAR
STARTCHAR Radical2
ENCODING 34
SWIDTH 975 0
DWIDTH 23 0
BBX 22 40 1 -24
BITMAP
00003c
00003c
000030
000030
000030
000060
000060
000060
000060
000060
0000c0
0000c0
0000c0
0000c0
0000c0
000180
000180
000180
040180
1e0180
6e0300
8f0300
070300
078300
038300
038600
01c600
01c600
00e600
00e600
00fc00
007c00
007c00
003c00
003c00
001800
001800
001800
000800
000800
ENDCHAR
STARTCHAR Radical2Extens
ENCODING 35
SWIDTH 230 0
DWIDTH 6 0
BBX 7 2 -1 14
BITMAP
fe
fe
ENDCHAR
STARTCHAR Radical3
ENCODING 36
SWIDTH 1115 0
DWIDTH 27 0
BBX 25 70 1 -32
BITMAP
00000780
00000780
00000600
00000600
00000600
00000600
00000c00
00000c00
00000c00
00000c00
00000c00
00000c00
00000c00
00001800
00001800
00001800
00001800
00001800
00001800
00001800
00003000
00003000
00003000
00003000
00003000
00003000
00003000
00006000
00006000
00006000
00006000
00006000
00006000
00006000
00004000
0000c000
0000c000
0000c000
0000c000
0000c000
0600c000
1e008000
7e018000
87018000
07018000
07018000
03818000
03818000
03818000
01c30000
01c30000
01c30000
00e30000
00e30000
00e30000
00730000
00760000
00760000
003e0000
003e0000
003e0000
001e0000
001e0000
001c0000
000c0000
000c0000
000c0000
00040000
00040000
00040000
ENDCHAR
STARTCHAR Radical3Extens
ENCODING 37
SWIDTH 230 0
DWIDTH 6 0
BBX 7 2 -1 36
BITMAP
fe
fe
ENDCHAR
STARTCHAR Radical4
ENCODING 38
SWIDTH 1127 0
DWIDTH 27 0
BBX 26 93 1 -40
BITMAP
00000fc0
00000fc0
00000c00
00000c00
00000c00
00000c00
00000c00
00000c00
00000800
00001800
00001800
00001800
00001800
00001800
00001800
00001800
00001800
00001800
00001800
00001800
00001800
00003000
00003000
00003000
00003000
00003000
00003000
00003000
00003000
00003000
00003000
00003000
00003000
00003000
00006000
00006000
00006000
00006000
00006000
00006000
00006000
00006000
00006000
00006000
00006000
00006000
00004000
0000c000
0000c000
0000c000
0000c000
0000c000
0000c000
0000c000
0000c000
0600c000
1e00c000
7e00c000
8e00c000
07018000
07018000
07018000
03818000
03818000
03818000
03c18000
01c18000
01c18000
01c18000
00e18000
00e18000
00e18000
00f30000
00730000
00730000
00730000
003b0000
003b0000
003b0000
001f0000
001f0000
001f0000
001f0000
000f0000
000e0000
000e0000
00060000
00060000
00060000
00060000
00020000
00020000
00020000
ENDCHAR
STARTCHAR Radical4Extens
ENCODING 39
SWIDTH 230 0
DWIDTH 6 0
BBX 7 2 -1 51
BITMAP
fe
fe
ENDCHAR
STARTCHAR Radical5
ENCODING 40
SWIDTH 1070 0
DWIDTH 26 0
BBX 18 98 1 -46
BITMAP
0000c0
0000c0
0000c0
0000c0
0000c0
0000c0
0000c0
0000c0
0000c0
0000c0
0000c0
0000c0
0000c0
0000c0
0000c0
0000c0
0000c0
0000c0
0000c0
0000c0
0000c0
0000c0
0000c0
0000c0
0000c0
0000c0
0000c0
0000c0
0000c0
0000c0
0000c0
0000c0
0000c0
0000c0
0000c0
0000c0
0000c0
0000c0
0000c0
0000c0
0000c0
0000c0
0000c0
0000c0
0000c0
0000c0
0000c0
0000c0
0000c0
0000c0
0000c0
0000c0
0000c0
0000c0
0200c0
0f00c0
7700c0
8700c0
0380c0
0380c0
0380c0
01c0c0
01c0c0
01c0c0
01e0c0
00e0c0
00e0c0
00e0c0
0070c0
0070c0
0070c0
0038c0
0038c0
0038c0
003cc0
001cc0
001cc0
001ec0
000ec0
000ec0
000ec0
0007c0
0007c0
0007c0
0003c0
0003c0
0003c0
0003c0
0001c0
0001c0
0001c0
0000c0
0000c0
0000c0
000040
000040
000040
000040
ENDCHAR
STARTCHAR Radical5VertExtens
ENCODING 41
SWIDTH 1070 0
DWIDTH 26 0
BBX 2 8 17 0
BITMAP
c0
c0
c0
c0
c0
c0
c0
c0
ENDCHAR
STARTCHAR Radical5Top
ENCODING 42
SWIDTH 1070 0
DWIDTH 26 0
BBX 9 8 17 0
BITMAP
ff80
ff80
c000
c000
c000
c000
c000
c000
ENDCHAR
STARTCHAR Radical5Extens
ENCODING 43
SWIDTH 230 0
DWIDTH 6 0
BBX 7 2 -1 6
BITMAP
fe
fe
ENDCHAR
STARTCHAR FixedFreeRadical1
ENCODING 44
SWIDTH 855 0
DWIDTH 21 0
BBX 18 26 1 -19
BITMAP
0000c0
0001c0
000180
000180
000380
000300
000300
000300
000600
040600
1c0600
7e0e00
8e0c00
0e0c00
071c00
071800
079800
039800
03f000
01f000
01f000
00f000
00e000
00e000
006000
004000
ENDCHAR
STARTCHAR FixedFreeRadical2
ENCODING 45
SWIDTH 975 0
DWIDTH 23 0
BBX 20 40 1 -24
BITMAP
000030
000030
000060
000060
000060
000060
000060
0000c0
0000c0
0000c0
0000c0
0001c0
000180
000180
000180
000180
000380
000300
040300
1e0300
6e0300
8e0600
070600
070600
078600
038e00
038c00
01cc00
01cc00
01ec00
00fc00
00f800
007800
007800
007800
003000
003000
001000
001000
001000
ENDCHAR
STARTCHAR FixedFreeRadical3
ENCODING 46
SWIDTH 1115 0
DWIDTH 27 0
BBX 23 70 1 -32
BITMAP
000006
000006
000006
00000c
00000c
00000c
00000c
00000c
00000c
00000c
000018
000018
000018
000018
000018
000018
000038
000030
000030
000030
000030
000030
000030
000070
000060
000060
000060
000060
000060
000060
0000c0
0000c0
0000c0
0000c0
0000c0
0000c0
0001c0
000180
000180
000180
060180
1e0180
7e0180
8e0380
070300
070300
070300
038300
038300
038300
01c700
01c600
01c600
01e600
00e600
00e600
00f600
007c00
007c00
007c00
003c00
003c00
003c00
001c00
001800
001800
000800
000800
000800
000800
ENDCHAR
STARTCHAR FixedFreeRadical4
ENCODING 47
SWIDTH 1127 0
DWIDTH 27 0
BBX 22 93 1 -40
BITMAP
00000c
00000c
00000c
00000c
00000c
00000c
00001c
000018
000018
000018
000018
000018
000018
000018
000018
000018
000018
000018
000018
000018
000030
000030
000030
000030
000030
000030
000030
000030
000030
000030
000030
000030
000030
000060
000060
000060
000060
000060
000060
000060
000060
000060
000060
000060
000060
000060
0000c0
0000c0
0000c0
0000c0
0000c0
0000c0
0000c0
0000c0
0000c0
0600c0
1e00c0
7e00c0
8e00c0
070180
070180
070180
038180
038180
038180
03c180
01c180
01c180
01c180
00e180
00e180
00e180
00f300
007300
007300
007300
003b00
003b00
003b00
001f00
001f00
001f00
001f00
000f00
000f00
000e00
000600
000600
000600
000600
000200
000200
000200
ENDCHAR
STARTCHAR TexRad1
ENCODING 48
SWIDTH 855 0
DWIDTH 21 0
BBX 20 26 1 -24
BITMAP
0000f0
0000f0
0000c0
0001c0
000180
000180
000180
000300
000300
040300
3c0600
ce0600
8e0600
0f0c00
070c00
078c00
039c00
039800
01d800
01f800
01f000
00f000
00f000
006000
006000
002000
ENDCHAR
STARTCHAR TexRad2
ENCODING 49
SWIDTH 975 0
DWIDTH 23 0
BBX 22 40 1 -38
BITMAP
00003c
00003c
000030
000030
000030
000060
000060
000060
000060
000060
0000c0
0000c0
0000c0
0000c0
0000c0
000180
000180
000180
040180
3e0180
ce0100
070300
070300
078300
038300
038200
01c600
01c600
00e600
00e600
007600
007c00
007c00
003c00
003c00
001c00
001800
000800
000800
000800
ENDCHAR
STARTCHAR TexRad3
ENCODING 50
SWIDTH 1115 0
DWIDTH 27 0
BBX 26 69 1 -67
BITMAP
000003c0
000003c0
00000700
00000700
00000600
00000600
00000600
00000600
00000600
00000e00
00000e00
00000c00
00000c00
00000c00
00000c00
00001c00
00001c00
00001c00
00001800
00001800
00001800
00001800
00003800
00003800
00003000
00003000
00003000
00003000
00003000
00007000
00007000
00006000
00006000
00006000
00006000
0000e000
0000e000
0000e000
0000c000
0000c000
0600c000
1f00c000
7f01c000
cf01c000
07818000
07818000
07818000
03c18000
03c38000
03e38000
01e38000
01e30000
00f30000
00f30000
00f30000
007f0000
007f0000
007f0000
003e0000
003e0000
001e0000
001e0000
001e0000
000e0000
000e0000
00040000
00040000
00040000
00020000
ENDCHAR
STARTCHAR TexRad4
ENCODING 51
SWIDTH 1127 0
DWIDTH 27 0
BBX 25 93 2 -91
BITMAP
00000f80
00001f80
00001c00
00001c00
00001c00
00001c00
00001800
00001800
00001800
00001800
00001800
00001800
00001800
00001800
00003800
00003800
00003800
00003800
00003000
00003000
00003000
00003000
00003000
00003000
00003000
00003000
00007000
00007000
00007000
00007000
00006000
00006000
00006000
00006000
00006000
00006000
00006000
00006000
0000e000
0000e000
0000e000
0000e000
0000c000
0000c000
0000c000
0000c000
0000c000
0000c000
0000c000
0000c000
0000c000
0001c000
0001c000
0001c000
00018000
00018000
0c018000
3e018000
fe018000
9e018000
0f018000
0f018000
0f018000
07838000
07838000
07838000
03c38000
03c30000
03c30000
01e30000
01e30000
01e30000
00f30000
00f30000
00f30000
007b0000
007f0000
007f0000
003f0000
003e0000
003e0000
001e0000
001e0000
001e0000
000e0000
000e0000
000e0000
00060000
00060000
00060000
00020000
00020000
00020000
ENDCHAR
STARTCHAR TexRad5
ENCODING 52
SWIDTH 1070 0
DWIDTH 26 0
BBX 18 99 1 -97
BITMAP
000180
000180
000180
000180
000180
000180
000180
000180
000180
000180
000180
000180
000180
000180
000180
000180
000180
000180
000180
000180
000180
000180
000180
000180
000180
000180
000180
000180
000180
000180
000180
000180
000180
000180
000180
000180
000180
000180
000180
000180
000180
000180
000180
000180
000180
000180
000180
000180
000180
000180
000180
000180
000180
000180
000180
060180
1f0180
7f0180
cf0180
0f8180
078180
078180
07c180
03c180
03c180
03e180
01e180
01e180
01f180
00f180
00f180
00f980
007980
007980
007d80
003d80
003d80
003f80
001f80
001f80
001f80
000f80
000f80
000f80
000780
000780
000780
000380
000380
000380
000180
000180
000180
000080
000080
000080
000080
000040
000040
ENDCHAR
STARTCHAR TexRad5VertExt
ENCODING 53
SWIDTH 1070 0
DWIDTH 26 0
BBX 2 8 17 -6
BITMAP
c0
c0
c0
c0
c0
c0
c0
c0
ENDCHAR
STARTCHAR TexRad5Top
ENCODING 54
SWIDTH 1070 0
DWIDTH 26 0
BBX 9 8 17 -6
BITMAP
ff80
ff80
c000
c000
c000
c000
c000
c000
ENDCHAR
STARTCHAR TexRadExtens
ENCODING 55
SWIDTH 230 0
DWIDTH 6 0
BBX 7 2 -1 0
BITMAP
fe
fe
ENDCHAR
STARTCHAR LBrace1
ENCODING 56
SWIDTH 372 0
DWIDTH 9 0
BBX 7 20 1 -4
BITMAP
0e
1c
38
38
38
38
38
38
30
e0
30
38
38
38
38
38
38
38
1c
0e
ENDCHAR
STARTCHAR LBrace2
ENCODING 57
SWIDTH 384 0
DWIDTH 9 0
BBX 7 30 1 -9
BITMAP
06
1c
18
38
38
38
38
38
38
38
38
38
38
70
c0
70
38
38
38
38
38
38
38
38
38
38
38
1c
1c
06
ENDCHAR
STARTCHAR LBrace3
ENCODING 58
SWIDTH 484 0
DWIDTH 12 0
BBX 9 40 1 -14
BITMAP
0180
0300
0600
0e00
0c00
1c00
1c00
1c00
1c00
1c00
1c00
1c00
1c00
1c00
1c00
1c00
3800
3000
7000
e000
7000
3000
3800
1800
1c00
1c00
1c00
1c00
1c00
1c00
1c00
1c00
1c00
1c00
0c00
0c00
0e00
0600
0300
0180
ENDCHAR
STARTCHAR LBrace4
ENCODING 59
SWIDTH 599 0
DWIDTH 14 0
BBX 13 50 1 -19
BITMAP
0018
0060
00c0
01c0
0180
0380
0380
0700
0700
0700
0700
0700
0700
0700
0700
0700
0700
0700
0700
0700
0e00
0e00
1c00
3800
e000
3800
1c00
0c00
0e00
0700
0700
0700
0700
0700
0700
0700
0700
0700
0700
0700
0700
0700
0700
0380
0380
0180
01c0
00c0
0060
0018
ENDCHAR
STARTCHAR RBrace1
ENCODING 60
SWIDTH 372 0
DWIDTH 9 0
BBX 7 20 1 -4
BITMAP
e0
70
38
38
38
38
38
38
18
0e
18
38
38
38
38
38
38
38
70
e0
ENDCHAR
STARTCHAR RBrace2
ENCODING 61
SWIDTH 384 0
DWIDTH 9 0
BBX 7 30 1 -9
BITMAP
c0
70
30
38
38
38
38
38
38
38
38
38
38
1c
06
1c
38
38
38
38
38
38
38
38
38
38
38
70
70
c0
ENDCHAR
STARTCHAR RBrace3
ENCODING 62
SWIDTH 484 0
DWIDTH 12 0
BBX 9 40 2 -14
BITMAP
c000
6000
3000
3800
1800
1c00
1c00
1c00
1c00
1c00
1c00
1c00
1c00
1c00
1c00
1c00
0e00
0600
0700
0380
0700
0600
0e00
0c00
1c00
1c00
1c00
1c00
1c00
1c00
1c00
1c00
1c00
1c00
1800
1800
3800
3000
6000
c000
ENDCHAR
STARTCHAR RBrace4
ENCODING 63
SWIDTH 599 0
DWIDTH 14 0
BBX 12 50 1 -19
BITMAP
c000
6000
3000
1800
1c00
1c00
0c00
0e00
0e00
0e00
0e00
0e00
0e00
0e00
0e00
0e00
0e00
0e00
0e00
0e00
0700
0700
0380
01c0
0070
01c0
0380
0300
0700
0600
0e00
0e00
0e00
0e00
0e00
0e00
0e00
0e00
0e00
0e00
0e00
0e00
0e00
0c00
1c00
1c00
1800
3000
6000
c000
ENDCHAR
STARTCHAR LBracket1
ENCODING 64
SWIDTH 359 0
DWIDTH 9 0
BBX 6 20 2 -4
BITMAP
fc
e0
e0
e0
e0
e0
e0
e0
e0
e0
e0
e0
e0
e0
e0
e0
e0
e0
e0
fc
ENDCHAR
STARTCHAR LBracket2
ENCODING 65
SWIDTH 369 0
DWIDTH 9 0
BBX 6 30 2 -9
BITMAP
fc
e0
e0
e0
e0
e0
e0
e0
e0
e0
e0
e0
e0
e0
e0
e0
e0
e0
e0
e0
e0
e0
e0
e0
e0
e0
e0
e0
e0
fc
ENDCHAR
STARTCHAR LBracket3
ENCODING 66
SWIDTH 379 0
DWIDTH 9 0
BBX 6 40 2 -14
BITMAP
fc
e0
e0
e0
e0
e0
e0
e0
e0
e0
e0
e0
e0
e0
e0
e0
e0
e0
e0
e0
e0
e0
e0
e0
e0
e0
e0
e0
e0
e0
e0
e0
e0
e0
e0
e0
e0
e0
e0
fc
ENDCHAR
STARTCHAR LBracket4
ENCODING 67
SWIDTH 389 0
DWIDTH 9 0
BBX 6 50 2 -19
BITMAP
fc
e0
e0
e0
e0
e0
e0
e0
e0
e0
e0
e0
e0
e0
e0
e0
e0
e0
e0
e0
e0
e0
e0
e0
e0
e0
e0
e0
e0
e0
e0
e0
e0
e0
e0
e0
e0
e0
e0
e0
e0
e0
e0
e0
e0
e0
e0
e0
e0
fc
ENDCHAR
STARTCHAR RBracket1
ENCODING 68
SWIDTH 359 0
DWIDTH 9 0
BBX 6 20 1 -4
BITMAP
fc
1c
1c
1c
1c
1c
1c
1c
1c
1c
1c
1c
1c
1c
1c
1c
1c
1c
1c
fc
ENDCHAR
STARTCHAR RBracket2
ENCODING 69
SWIDTH 369 0
DWIDTH 9 0
BBX 6 30 1 -9
BITMAP
fc
1c
1c
1c
1c
1c
1c
1c
1c
1c
1c
1c
1c
1c
1c
1c
1c
1c
1c
1c
1c
1c
1c
1c
1c
1c
1c
1c
1c
fc
ENDCHAR
STARTCHAR RBracket3
ENCODING 70
SWIDTH 379 0
DWIDTH 9 0
BBX 6 40 1 -14
BITMAP
fc
1c
1c
1c
1c
1c
1c
1c
1c
1c
1c
1c
1c
1c
1c
1c
1c
1c
1c
1c
1c
1c
1c
1c
1c
1c
1c
1c
1c
1c
1c
1c
1c
1c
1c
1c
1c
1c
1c
fc
ENDCHAR
STARTCHAR RBracket4
ENCODING 71
SWIDTH 389 0
DWIDTH 9 0
BBX 6 50 1 -19
BITMAP
fc
1c
1c
1c
1c
1c
1c
1c
1c
1c
1c
1c
1c
1c
1c
1c
1c
1c
1c
1c
1c
1c
1c
1c
1c
1c
1c
1c
1c
1c
1c
1c
1c
1c
1c
1c
1c
1c
1c
1c
1c
1c
1c
1c
1c
1c
1c
1c
1c
fc
ENDCHAR
STARTCHAR LParen1
ENCODING 72
SWIDTH 349 0
DWIDTH 8 0
BBX 6 20 1 -4
BITMAP
04
08
10
30
70
60
60
e0
e0
e0
e0
e0
e0
e0
60
70
30
10
08
04
ENDCHAR
STARTCHAR LParen2
ENCODING 73
SWIDTH 334 0
DWIDTH 8 0
BBX 6 30 1 -9
BITMAP
04
08
18
10
30
30
60
60
60
e0
e0
e0
e0
e0
e0
e0
e0
e0
e0
e0
e0
60
60
60
30
30
10
18
08
04
ENDCHAR
STARTCHAR LParen3
ENCODING 74
SWIDTH 353 0
DWIDTH 8 0
BBX 7 40 1 -14
BITMAP
02
04
0c
08
18
10
30
30
70
70
60
60
e0
e0
e0
e0
e0
e0
e0
e0
e0
e0
e0
e0
e0
e0
e0
e0
60
60
60
70
30
30
10
18
08
0c
04
02
ENDCHAR
STARTCHAR LParen4
ENCODING 75
SWIDTH 399 0
DWIDTH 10 0
BBX 8 50 1 -19
BITMAP
01
02
06
0c
08
18
18
30
30
30
70
70
60
60
60
e0
e0
e0
e0
e0
e0
e0
e0
e0
e0
e0
e0
e0
e0
e0
e0
e0
e0
e0
e0
60
60
60
70
70
30
30
30
18
18
0c
0c
06
02
01
ENDCHAR
STARTCHAR RParen1
ENCODING 76
SWIDTH 349 0
DWIDTH 8 0
BBX 6 20 1 -4
BITMAP
80
40
20
30
38
18
1c
1c
1c
1c
1c
1c
1c
1c
18
38
30
20
40
80
ENDCHAR
STARTCHAR RParen2
ENCODING 77
SWIDTH 334 0
DWIDTH 8 0
BBX 6 30 1 -9
BITMAP
80
40
60
20
30
30
18
18
18
1c
1c
1c
1c
1c
1c
1c
1c
1c
1c
1c
1c
18
18
18
30
30
20
60
40
80
ENDCHAR
STARTCHAR RParen3
ENCODING 78
SWIDTH 353 0
DWIDTH 8 0
BBX 7 40 0 -14
BITMAP
80
40
60
20
30
10
18
18
1c
0c
0c
0c
0e
0e
0e
0e
0e
0e
0e
0e
0e
0e
0e
0e
0e
0e
0e
0e
0c
0c
0c
1c
18
18
10
30
20
60
40
80
ENDCHAR
STARTCHAR RParen4
ENCODING 79
SWIDTH 399 0
DWIDTH 10 0
BBX 8 50 1 -19
BITMAP
80
40
60
30
10
18
18
0c
0c
0c
0e
0e
06
06
06
07
07
07
07
07
07
07
07
07
07
07
07
07
07
07
07
07
07
07
07
06
06
06
0e
0e
0c
0c
0c
18
18
30
30
60
40
80
ENDCHAR
STARTCHAR DblLBracket1
ENCODING 80
SWIDTH 484 0
DWIDTH 12 0
BBX 9 20 2 -4
BITMAP
ff80
9c00
9c00
9c00
9c00
9c00
9c00
9c00
9c00
9c00
9c00
9c00
9c00
9c00
9c00
9c00
9c00
9c00
9c00
ff80
ENDCHAR
STARTCHAR DblLBracket2
ENCODING 81
SWIDTH 494 0
DWIDTH 12 0
BBX 9 30 2 -9
BITMAP
ff80
9c00
9c00
9c00
9c00
9c00
9c00
9c00
9c00
9c00
9c00
9c00
9c00
9c00
9c00
9c00
9c00
9c00
9c00
9c00
9c00
9c00
9c00
9c00
9c00
9c00
9c00
9c00
9c00
ff80
ENDCHAR
STARTCHAR DblLBracket3
ENCODING 82
SWIDTH 504 0
DWIDTH 12 0
BBX 9 40 2 -14
BITMAP
ff80
9c00
9c00
9c00
9c00
9c00
9c00
9c00
9c00
9c00
9c00
9c00
9c00
9c00
9c00
9c00
9c00
9c00
9c00
9c00
9c00
9c00
9c00
9c00
9c00
9c00
9c00
9c00
9c00
9c00
9c00
9c00
9c00
9c00
9c00
9c00
9c00
9c00
9c00
ff80
ENDCHAR
STARTCHAR DblLBracket4
ENCODING 83
SWIDTH 514 0
DWIDTH 12 0
BBX 9 50 2 -19
BITMAP
ff80
9c00
9c00
9c00
9c00
9c00
9c00
9c00
9c00
9c00
9c00
9c00
9c00
9c00
9c00
9c00
9c00
9c00
9c00
9c00
9c00
9c00
9c00
9c00
9c00
9c00
9c00
9c00
9c00
9c00
9c00
9c00
9c00
9c00
9c00
9c00
9c00
9c00
9c00
9c00
9c00
9c00
9c00
9c00
9c00
9c00
9c00
9c00
9c00
ff80
ENDCHAR
STARTCHAR DblRBracket1
ENCODING 84
SWIDTH 484 0
DWIDTH 12 0
BBX 9 20 1 -4
BITMAP
ff80
1c80
1c80
1c80
1c80
1c80
1c80
1c80
1c80
1c80
1c80
1c80
1c80
1c80
1c80
1c80
1c80
1c80
1c80
ff80
ENDCHAR
STARTCHAR DblRBracket2
ENCODING 85
SWIDTH 494 0
DWIDTH 12 0
BBX 9 30 1 -9
BITMAP
ff80
1c80
1c80
1c80
1c80
1c80
1c80
1c80
1c80
1c80
1c80
1c80
1c80
1c80
1c80
1c80
1c80
1c80
1c80
1c80
1c80
1c80
1c80
1c80
1c80
1c80
1c80
1c80
1c80
ff80
ENDCHAR
STARTCHAR DblRBracket3
ENCODING 86
SWIDTH 504 0
DWIDTH 12 0
BBX 9 40 1 -14
BITMAP
ff80
1c80
1c80
1c80
1c80
1c80
1c80
1c80
1c80
1c80
1c80
1c80
1c80
1c80
1c80
1c80
1c80
1c80
1c80
1c80
1c80
1c80
1c80
1c80
1c80
1c80
1c80
1c80
1c80
1c80
1c80
1c80
1c80
1c80
1c80
1c80
1c80
1c80
1c80
ff80
ENDCHAR
STARTCHAR DblRBracket4
ENCODING 87
SWIDTH 514 0
DWIDTH 12 0
BBX 9 50 1 -19
BITMAP
ff80
1c80
1c80
1c80
1c80
1c80
1c80
1c80
1c80
1c80
1c80
1c80
1c80
1c80
1c80
1c80
1c80
1c80
1c80
1c80
1c80
1c80
1c80
1c80
1c80
1c80
1c80
1c80
1c80
1c80
1c80
1c80
1c80
1c80
1c80
1c80
1c80
1c80
1c80
1c80
1c80
1c80
1c80
1c80
1c80
1c80
1c80
1c80
1c80
ff80
ENDCHAR
STARTCHAR LAngleBracket1
ENCODING 88
SWIDTH 398 0
DWIDTH 10 0
BBX 7 20 2 -4
BITMAP
06
0e
0c
1c
18
38
30
70
60
c0
c0
60
70
30
38
18
1c
0c
0e
06
ENDCHAR
STARTCHAR LAngleBracket2
ENCODING 89
SWIDTH 375 0
DWIDTH 9 0
BBX 7 30 2 -9
BITMAP
06
0e
0c
0c
1c
18
18
38
30
30
70
60
60
e0
c0
c0
e0
60
60
70
30
30
38
18
18
1c
0c
0c
0e
06
ENDCHAR
STARTCHAR LAngleBracket3
ENCODING 90
SWIDTH 378 0
DWIDTH 9 0
BBX 7 40 2 -14
BITMAP
06
06
0e
0c
0c
0c
1c
18
18
18
30
30
30
30
60
60
60
60
c0
c0
c0
c0
60
60
60
60
30
30
30
30
18
18
18
1c
0c
0c
0c
0e
06
06
ENDCHAR
STARTCHAR LAngleBracket4
ENCODING 91
SWIDTH 394 0
DWIDTH 9 0
BBX 7 50 2 -19
BITMAP
06
06
0e
0c
0c
0c
0c
1c
18
18
18
18
38
30
30
30
30
70
60
60
60
60
e0
c0
c0
c0
c0
60
60
60
60
60
30
30
30
30
30
18
18
18
18
18
0c
0c
0c
0c
0c
06
06
06
ENDCHAR
STARTCHAR RAngleBracket1
ENCODING 92
SWIDTH 398 0
DWIDTH 10 0
BBX 7 20 1 -4
BITMAP
c0
e0
60
70
30
38
18
1c
0c
06
06
0c
1c
18
38
30
70
60
e0
c0
ENDCHAR
STARTCHAR RAngleBracket2
ENCODING 93
SWIDTH 375 0
DWIDTH 9 0
BBX 7 30 0 -9
BITMAP
c0
e0
60
60
70
30
30
38
18
18
1c
0c
0c
0e
06
06
0e
0c
0c
1c
18
18
38
30
30
70
60
60
e0
c0
ENDCHAR
STARTCHAR RAngleBracket3
ENCODING 94
SWIDTH 378 0
DWIDTH 9 0
BBX 7 40 0 -14
BITMAP
c0
c0
e0
60
60
60
70
30
30
30
18
18
18
18
0c
0c
0c
0c
06
06
06
06
0c
0c
0c
0c
18
18
18
18
30
30
30
70
60
60
60
e0
c0
c0
ENDCHAR
STARTCHAR RAngleBracket4
ENCODING 95
SWIDTH 394 0
DWIDTH 9 0
BBX 7 50 0 -19
BITMAP
c0
c0
e0
60
60
60
60
70
30
30
30
30
38
18
18
18
18
1c
0c
0c
0c
0c
0e
06
06
06
06
0c
0c
0c
0c
0c
18
18
18
18
18
30
30
30
30
30
60
60
60
60
60
c0
c0
c0
ENDCHAR
STARTCHAR LCeiling1
ENCODING 96
SWIDTH 411 0
DWIDTH 10 0
BBX 7 20 2 -4
BITMAP
fe
fe
c0
c0
c0
c0
c0
c0
c0
c0
c0
c0
c0
c0
c0
c0
c0
c0
c0
c0
ENDCHAR
STARTCHAR LCeiling2
ENCODING 97
SWIDTH 411 0
DWIDTH 10 0
BBX 7 30 2 -9
BITMAP
fe
fe
c0
c0
c0
c0
c0
c0
c0
c0
c0
c0
c0
c0
c0
c0
c0
c0
c0
c0
c0
c0
c0
c0
c0
c0
c0
c0
c0
c0
ENDCHAR
STARTCHAR LCeiling3
ENCODING 98
SWIDTH 411 0
DWIDTH 10 0
BBX 7 41 2 -15
BITMAP
fe
fe
c0
c0
c0
c0
c0
c0
c0
c0
c0
c0
c0
c0
c0
c0
c0
c0
c0
c0
c0
c0
c0
c0
c0
c0
c0
c0
c0
c0
c0
c0
c0
c0
c0
c0
c0
c0
c0
c0
c0
ENDCHAR
STARTCHAR LCeiling4
ENCODING 99
SWIDTH 411 0
DWIDTH 10 0
BBX 7 50 2 -19
BITMAP
fe
fe
c0
c0
c0
c0
c0
c0
c0
c0
c0
c0
c0
c0
c0
c0
c0
c0
c0
c0
c0
c0
c0
c0
c0
c0
c0
c0
c0
c0
c0
c0
c0
c0
c0
c0
c0
c0
c0
c0
c0
c0
c0
c0
c0
c0
c0
c0
c0
c0
ENDCHAR
STARTCHAR LFloor1
ENCODING 100
SWIDTH 411 0
DWIDTH 10 0
BBX 7 21 2 -4
BITMAP
c0
c0
c0
c0
c0
c0
c0
c0
c0
c0
c0
c0
c0
c0
c0
c0
c0
c0
c0
fe
fe
ENDCHAR
STARTCHAR LFloor2
ENCODING 101
SWIDTH 411 0
DWIDTH 10 0
BBX 7 31 2 -9
BITMAP
c0
c0
c0
c0
c0
c0
c0
c0
c0
c0
c0
c0
c0
c0
c0
c0
c0
c0
c0
c0
c0
c0
c0
c0
c0
c0
c0
c0
c0
fe
fe
ENDCHAR
STARTCHAR LFloor3
ENCODING 102
SWIDTH 411 0
DWIDTH 10 0
BBX 7 41 2 -14
BITMAP
c0
c0
c0
c0
c0
c0
c0
c0
c0
c0
c0
c0
c0
c0
c0
c0
c0
c0
c0
c0
c0
c0
c0
c0
c0
c0
c0
c0
c0
c0
c0
c0
c0
c0
c0
c0
c0
c0
c0
fe
fe
ENDCHAR
STARTCHAR LFloor4
ENCODING 103
SWIDTH 411 0
DWIDTH 10 0
BBX 7 51 2 -19
BITMAP
c0
c0
c0
c0
c0
c0
c0
c0
c0
c0
c0
c0
c0
c0
c0
c0
c0
c0
c0
c0
c0
c0
c0
c0
c0
c0
c0
c0
c0
c0
c0
c0
c0
c0
c0
c0
c0
c0
c0
c0
c0
c0
c0
c0
c0
c0
c0
c0
c0
fe
fe
ENDCHAR
STARTCHAR LFlrClngExtens
ENCODING 104
SWIDTH 411 0
DWIDTH 10 0
BBX 2 9 2 -1
BITMAP
c0
c0
c0
c0
c0
c0
c0
c0
c0
ENDCHAR
STARTCHAR LParenTop
ENCODING 105
SWIDTH 421 0
DWIDTH 10 0
BBX 8 21 1 -2
BITMAP
01
02
04
0c
18
18
30
30
70
70
60
60
e0
e0
e0
e0
e0
e0
e0
e0
e0
ENDCHAR
STARTCHAR LParenExtens
ENCODING 106
SWIDTH 421 0
DWIDTH 10 0
BBX 3 9 1 -1
BITMAP
e0
e0
e0
e0
e0
e0
e0
e0
e0
ENDCHAR
STARTCHAR LParenBottom
ENCODING 107
SWIDTH 421 0
DWIDTH 10 0
BBX 8 21 1 0
BITMAP
e0
e0
e0
e0
e0
e0
e0
e0
60
60
60
70
70
30
30
18
18
0c
04
02
01
ENDCHAR
STARTCHAR LBraceTop
ENCODING 108
SWIDTH 597 0
DWIDTH 14 0
BBX 8 17 6 -2
BITMAP
03
04
08
18
30
30
70
70
60
e0
e0
e0
e0
e0
e0
e0
e0
ENDCHAR
STARTCHAR LBraceMiddle
ENCODING 109
SWIDTH 597 0
DWIDTH 14 0
BBX 7 19 2 -3
BITMAP
0e
0e
0e
0e
0c
1c
1c
38
70
e0
70
38
1c
1c
0c
0e
0e
0e
0e
ENDCHAR
STARTCHAR LBraceBottom
ENCODING 110
SWIDTH 597 0
DWIDTH 14 0
BBX 8 17 6 0
BITMAP
e0
e0
e0
e0
e0
e0
e0
60
60
70
70
30
30
18
08
04
03
ENDCHAR
STARTCHAR BraceExtens
ENCODING 111
SWIDTH 597 0
DWIDTH 14 0
BBX 3 9 6 -1
BITMAP
e0
e0
e0
e0
e0
e0
e0
e0
e0
ENDCHAR
STARTCHAR RCeiling1
ENCODING 112
SWIDTH 411 0
DWIDTH 10 0
BBX 7 20 1 -4
BITMAP
fe
fe
06
06
06
06
06
06
06
06
06
06
06
06
06
06
06
06
06
06
ENDCHAR
STARTCHAR RCeiling2
ENCODING 113
SWIDTH 411 0
DWIDTH 10 0
BBX 7 30 1 -9
BITMAP
fe
fe
06
06
06
06
06
06
06
06
06
06
06
06
06
06
06
06
06
06
06
06
06
06
06
06
06
06
06
06
ENDCHAR
STARTCHAR RCeiling3
ENCODING 114
SWIDTH 411 0
DWIDTH 10 0
BBX 7 40 1 -14
BITMAP
fe
fe
06
06
06
06
06
06
06
06
06
06
06
06
06
06
06
06
06
06
06
06
06
06
06
06
06
06
06
06
06
06
06
06
06
06
06
06
06
06
ENDCHAR
STARTCHAR RCeiling4
ENCODING 115
SWIDTH 411 0
DWIDTH 10 0
BBX 7 50 1 -19
BITMAP
fe
fe
06
06
06
06
06
06
06
06
06
06
06
06
06
06
06
06
06
06
06
06
06
06
06
06
06
06
06
06
06
06
06
06
06
06
06
06
06
06
06
06
06
06
06
06
06
06
06
06
ENDCHAR
STARTCHAR RFloor1
ENCODING 116
SWIDTH 411 0
DWIDTH 10 0
BBX 7 21 1 -4
BITMAP
06
06
06
06
06
06
06
06
06
06
06
06
06
06
06
06
06
06
06
fe
fe
ENDCHAR
STARTCHAR RFloor2
ENCODING 117
SWIDTH 411 0
DWIDTH 10 0
BBX 7 31 1 -9
BITMAP
06
06
06
06
06
06
06
06
06
06
06
06
06
06
06
06
06
06
06
06
06
06
06
06
06
06
06
06
06
fe
fe
ENDCHAR
STARTCHAR RFloor3
ENCODING 118
SWIDTH 411 0
DWIDTH 10 0
BBX 7 41 1 -14
BITMAP
06
06
06
06
06
06
06
06
06
06
06
06
06
06
06
06
06
06
06
06
06
06
06
06
06
06
06
06
06
06
06
06
06
06
06
06
06
06
06
fe
fe
ENDCHAR
STARTCHAR RFloor4
ENCODING 119
SWIDTH 411 0
DWIDTH 10 0
BBX 7 51 1 -19
BITMAP
06
06
06
06
06
06
06
06
06
06
06
06
06
06
06
06
06
06
06
06
06
06
06
06
06
06
06
06
06
06
06
06
06
06
06
06
06
06
06
06
06
06
06
06
06
06
06
06
06
fe
fe
ENDCHAR
STARTCHAR RFlrClngExtens
ENCODING 120
SWIDTH 411 0
DWIDTH 10 0
BBX 2 9 6 -1
BITMAP
c0
c0
c0
c0
c0
c0
c0
c0
c0
ENDCHAR
STARTCHAR RParenTop
ENCODING 121
SWIDTH 421 0
DWIDTH 10 0
BBX 8 21 1 -2
BITMAP
80
40
20
10
18
18
0c
0c
0e
0e
06
06
07
07
07
07
07
07
07
07
07
ENDCHAR
STARTCHAR RParenExtens
ENCODING 122
SWIDTH 421 0
DWIDTH 10 0
BBX 3 9 6 -1
BITMAP
e0
e0
e0
e0
e0
e0
e0
e0
e0
ENDCHAR
STARTCHAR RParenBottom
ENCODING 123
SWIDTH 421 0
DWIDTH 10 0
BBX 8 21 1 0
BITMAP
07
07
07
07
07
07
07
07
07
06
06
0e
0e
0c
0c
18
18
10
20
40
80
ENDCHAR
STARTCHAR RBraceTop
ENCODING 124
SWIDTH 597 0
DWIDTH 14 0
BBX 8 17 1 -2
BITMAP
c0
20
10
18
0c
0c
0e
06
06
06
07
07
07
07
07
07
07
ENDCHAR
STARTCHAR RBraceMiddle
ENCODING 125
SWIDTH 597 0
DWIDTH 14 0
BBX 7 19 6 -3
BITMAP
e0
e0
e0
e0
60
70
70
38
1c
0e
1c
38
70
70
60
e0
e0
e0
e0
ENDCHAR
STARTCHAR RBraceBottom
ENCODING 126
SWIDTH 597 0
DWIDTH 14 0
BBX 8 17 1 0
BITMAP
07
07
07
07
07
07
07
06
06
06
0e
0c
0c
18
10
20
c0
ENDCHAR
STARTCHAR LBracketTop
ENCODING 128
SWIDTH 389 0
DWIDTH 9 0
BBX 6 5 2 -1
BITMAP
fc
e0
e0
e0
e0
ENDCHAR
STARTCHAR LBracketExtens
ENCODING 129
SWIDTH 389 0
DWIDTH 9 0
BBX 3 9 2 -1
BITMAP
e0
e0
e0
e0
e0
e0
e0
e0
e0
ENDCHAR
STARTCHAR LBracketBottom
ENCODING 130
SWIDTH 389 0
DWIDTH 9 0
BBX 6 4 2 0
BITMAP
e0
e0
e0
fc
ENDCHAR
STARTCHAR RBracketTop
ENCODING 131
SWIDTH 389 0
DWIDTH 9 0
BBX 6 5 1 -1
BITMAP
fc
1c
1c
1c
1c
ENDCHAR
STARTCHAR RBracketExtens
ENCODING 132
SWIDTH 389 0
DWIDTH 9 0
BBX 3 9 4 -1
BITMAP
e0
e0
e0
e0
e0
e0
e0
e0
e0
ENDCHAR
STARTCHAR RBracketBottom
ENCODING 133
SWIDTH 389 0
DWIDTH 9 0
BBX 6 4 1 0
BITMAP
1c
1c
1c
fc
ENDCHAR
STARTCHAR DblLBracketBottom
ENCODING 134
SWIDTH 514 0
DWIDTH 12 0
BBX 9 4 2 0
BITMAP
9c00
9c00
9c00
ff80
ENDCHAR
STARTCHAR DblLBracketExtens
ENCODING 135
SWIDTH 514 0
DWIDTH 12 0
BBX 6 9 2 -1
BITMAP
9c
9c
9c
9c
9c
9c
9c
9c
9c
ENDCHAR
STARTCHAR DblLBracketTop
ENCODING 136
SWIDTH 514 0
DWIDTH 12 0
BBX 9 5 2 -1
BITMAP
ff80
9c00
9c00
9c00
9c00
ENDCHAR
STARTCHAR DblRBracketBottom
ENCODING 137
SWIDTH 514 0
DWIDTH 12 0
BBX 9 4 1 0
BITMAP
1c80
1c80
1c80
ff80
ENDCHAR
STARTCHAR DblRBracketExtens
ENCODING 138
SWIDTH 514 0
DWIDTH 12 0
BBX 6 9 4 -1
BITMAP
e4
e4
e4
e4
e4
e4
e4
e4
e4
ENDCHAR
STARTCHAR DblRBracketTop
ENCODING 139
SWIDTH 514 0
DWIDTH 12 0
BBX 9 5 1 -1
BITMAP
ff80
1c80
1c80
1c80
1c80
ENDCHAR
STARTCHAR LeftHook
ENCODING 140
SWIDTH 230 0
DWIDTH 6 0
BBX 6 20 0 0
BITMAP
fc
fc
c0
c0
c0
c0
c0
c0
c0
c0
c0
c0
c0
c0
c0
c0
c0
c0
c0
c0
ENDCHAR
STARTCHAR HookExt
ENCODING 141
SWIDTH 200 0
DWIDTH 5 0
BBX 5 2 0 18
BITMAP
f8
f8
ENDCHAR
STARTCHAR RightHook
ENCODING 142
SWIDTH 230 0
DWIDTH 6 0
BBX 6 20 0 0
BITMAP
fc
fc
0c
0c
0c
0c
0c
0c
0c
0c
0c
0c
0c
0c
0c
0c
0c
0c
0c
0c
ENDCHAR
STARTCHAR Radical1
ENCODING 143
SWIDTH 855 0
DWIDTH 21 0
BBX 20 27 1 -20
BITMAP
0000f0
0000f0
0000c0
0000c0
000180
000180
000180
000300
000300
040300
1c0300
6e0600
8e0600
070600
070c00
078c00
038c00
03d800
01d800
01f800
00f800
00f000
007000
007000
002000
002000
002000
ENDCHAR
STARTCHAR Slash1
ENCODING 144
SWIDTH 358 0
DWIDTH 9 0
BBX 9 20 0 -4
BITMAP
0180
0380
0300
0300
0700
0600
0600
0c00
0c00
0c00
1800
1800
1800
3000
3000
3000
6000
6000
6000
c000
ENDCHAR
STARTCHAR Slash2
ENCODING 145
SWIDTH 493 0
DWIDTH 12 0
BBX 12 30 0 -9
BITMAP
0030
0070
0060
0060
00e0
00c0
00c0
01c0
0180
0180
0380
0300
0300
0700
0600
0600
0e00
0c00
0c00
1c00
1800
1800
3800
3000
3000
7000
6000
6000
e000
c000
ENDCHAR
STARTCHAR Slash3
ENCODING 146
SWIDTH 632 0
DWIDTH 15 0
BBX 15 40 0 -14
BITMAP
0006
0006
000c
000c
000c
0018
0018
0018
0030
0030
0030
0060
0060
0060
00c0
00c0
00c0
0180
0180
0180
0300
0300
0300
0600
0600
0600
0c00
0c00
0c00
1c00
1800
1800
3800
3000
3000
7000
6000
6000
e000
c000
ENDCHAR
STARTCHAR Slash4
ENCODING 147
SWIDTH 757 0
DWIDTH 18 0
BBX 18 50 0 -19
BITMAP
0000c0
0000c0
000180
000180
000180
000300
000300
000300
000600
000600
000600
000c00
000c00
000c00
001800
001800
001800
003800
003000
003000
007000
006000
006000
00e000
00c000
00c000
00c000
018000
018000
018000
030000
030000
030000
060000
060000
060000
0c0000
0c0000
0c0000
180000
180000
180000
300000
300000
300000
700000
600000
600000
e00000
c00000
ENDCHAR
STARTCHAR BackSlash1
ENCODING 148
SWIDTH 358 0
DWIDTH 9 0
BBX 9 20 0 -4
BITMAP
c000
6000
6000
6000
3000
3000
3000
1800
1800
1800
0c00
0c00
0c00
0600
0600
0700
0300
0300
0380
0180
ENDCHAR
STARTCHAR BackSlash2
ENCODING 149
SWIDTH 493 0
DWIDTH 12 0
BBX 12 30 0 -9
BITMAP
c000
e000
6000
6000
7000
3000
3000
3800
1800
1800
1c00
0c00
0c00
0e00
0600
0600
0700
0300
0300
0380
0180
0180
01c0
00c0
00c0
00e0
0060
0060
0070
0030
ENDCHAR
STARTCHAR BackSlash3
ENCODING 150
SWIDTH 632 0
DWIDTH 15 0
BBX 15 40 0 -14
BITMAP
c000
e000
6000
6000
7000
3000
3000
3800
1800
1800
1c00
0c00
0c00
0c00
0600
0600
0600
0300
0300
0300
0180
0180
0180
00c0
00c0
00c0
0060
0060
0060
0030
0030
0030
0018
0018
0018
000c
000c
000c
0006
0006
ENDCHAR
STARTCHAR BackSlash4
ENCODING 151
SWIDTH 757 0
DWIDTH 18 0
BBX 18 50 0 -19
BITMAP
c00000
e00000
600000
600000
700000
300000
300000
300000
180000
180000
180000
0c0000
0c0000
0c0000
060000
060000
060000
030000
030000
030000
018000
018000
018000
00c000
00c000
00c000
00e000
006000
006000
007000
003000
003000
003800
001800
001800
001800
000c00
000c00
000c00
000600
000600
000600
000300
000300
000300
000180
000180
000180
0000c0
0000c0
ENDCHAR
STARTCHAR ContourIntegral
ENCODING 152
SWIDTH 430 0
DWIDTH 10 0
BBX 15 31 1 -6
BITMAP
003c
006e
00ce
01c6
01c0
0180
0180
0380
0380
0380
07c0
1fe0
1bb0
3398
3398
3398
3398
3b98
1bb0
0ff0
07c0
0380
0380
0380
0380
0300
0300
c700
e600
e400
7800
ENDCHAR
STARTCHAR DblContInteg
ENCODING 153
SWIDTH 779 0
DWIDTH 19 0
BBX 23 31 1 -6
BITMAP
003c3c
006e6e
00cece
01c7c6
01c1c0
018180
018180
038380
038380
038380
07ffc0
0fffe0
1b83f0
3b83b8
338398
338398
338398
338398
1b83b8
1f83b0
0fffe0
07ffc0
038380
038380
038380
030300
030300
c7c700
e6e600
e4e400
787800
ENDCHAR
STARTCHAR CntrClckwContInteg
ENCODING 154
SWIDTH 430 0
DWIDTH 10 0
BBX 15 31 1 -6
BITMAP
003c
006e
00ce
01c6
01c0
0180
0180
0380
0380
0380
07c0
1fe0
1bb0
33b8
3398
33bc
33da
3b98
1bb0
0ff0
07c0
0380
0380
0380
0380
0300
0300
c700
e600
e400
7800
ENDCHAR
STARTCHAR ClckwContInteg
ENCODING 155
SWIDTH 430 0
DWIDTH 10 0
BBX 15 31 1 -6
BITMAP
003c
006e
00ce
01c6
01c0
0180
0180
0380
0380
0380
07c0
0fe0
1bb0
3398
3398
7b98
b798
3398
1bb0
0ff0
07c0
0380
0380
0380
0380
0300
0300
c700
e600
e400
7800
ENDCHAR
STARTCHAR SquareContInteg
ENCODING 156
SWIDTH 430 0
DWIDTH 10 0
BBX 15 31 1 -6
BITMAP
003c
006e
00ce
01c6
0180
0180
0380
0380
0380
0380
3ff8
3ff8
3398
3398
3398
3398
3398
3398
3398
3ff8
3ff8
0380
0380
0380
0380
0300
0300
c700
e600
e400
7800
ENDCHAR
STARTCHAR UnionPlus
ENCODING 157
SWIDTH 893 0
DWIDTH 21 0
BBX 17 22 2 -4
BITMAP
c00180
c00180
c00180
c00180
c00180
c00180
c00180
c18180
c18180
c18180
c18180
dff980
dff980
c18180
c18180
c18180
618300
600300
300600
3c1c00
0ff800
03e000
ENDCHAR
STARTCHAR SquareIntersection
ENCODING 158
SWIDTH 893 0
DWIDTH 21 0
BBX 17 22 2 -4
BITMAP
ffff80
ffff80
c00180
c00180
c00180
c00180
c00180
c00180
c00180
c00180
c00180
c00180
c00180
c00180
c00180
c00180
c00180
c00180
c00180
c00180
c00180
c00180
ENDCHAR
STARTCHAR SquareUnion
ENCODING 159
SWIDTH 893 0
DWIDTH 21 0
BBX 17 22 2 -4
BITMAP
c00180
c00180
c00180
c00180
c00180
c00180
c00180
c00180
c00180
c00180
c00180
c00180
c00180
c00180
c00180
c00180
c00180
c00180
c00180
c00180
ffff80
ffff80
ENDCHAR
STARTCHAR LBracketBar1
ENCODING 160
SWIDTH 272 0
DWIDTH 7 0
BBX 2 20 2 -4
BITMAP
c0
c0
c0
c0
c0
c0
c0
c0
c0
c0
c0
c0
c0
c0
c0
c0
c0
c0
c0
c0
ENDCHAR
STARTCHAR LBracketBar2
ENCODING 161
SWIDTH 272 0
DWIDTH 7 0
BBX 2 30 2 -9
BITMAP
c0
c0
c0
c0
c0
c0
c0
c0
c0
c0
c0
c0
c0
c0
c0
c0
c0
c0
c0
c0
c0
c0
c0
c0
c0
c0
c0
c0
c0
c0
ENDCHAR
STARTCHAR LBracketBar3
ENCODING 162
SWIDTH 272 0
DWIDTH 7 0
BBX 2 40 2 -14
BITMAP
c0
c0
c0
c0
c0
c0
c0
c0
c0
c0
c0
c0
c0
c0
c0
c0
c0
c0
c0
c0
c0
c0
c0
c0
c0
c0
c0
c0
c0
c0
c0
c0
c0
c0
c0
c0
c0
c0
c0
c0
ENDCHAR
STARTCHAR LBracketBar4
ENCODING 163
SWIDTH 272 0
DWIDTH 7 0
BBX 2 50 2 -19
BITMAP
c0
c0
c0
c0
c0
c0
c0
c0
c0
c0
c0
c0
c0
c0
c0
c0
c0
c0
c0
c0
c0
c0
c0
c0
c0
c0
c0
c0
c0
c0
c0
c0
c0
c0
c0
c0
c0
c0
c0
c0
c0
c0
c0
c0
c0
c0
c0
c0
c0
c0
ENDCHAR
STARTCHAR RBracketBar1
ENCODING 164
SWIDTH 272 0
DWIDTH 7 0
BBX 2 20 2 -4
BITMAP
c0
c0
c0
c0
c0
c0
c0
c0
c0
c0
c0
c0
c0
c0
c0
c0
c0
c0
c0
c0
ENDCHAR
STARTCHAR RBracketBar2
ENCODING 165
SWIDTH 272 0
DWIDTH 7 0
BBX 2 30 2 -9
BITMAP
c0
c0
c0
c0
c0
c0
c0
c0
c0
c0
c0
c0
c0
c0
c0
c0
c0
c0
c0
c0
c0
c0
c0
c0
c0
c0
c0
c0
c0
c0
ENDCHAR
STARTCHAR RBracketBar3
ENCODING 166
SWIDTH 272 0
DWIDTH 7 0
BBX 2 40 2 -14
BITMAP
c0
c0
c0
c0
c0
c0
c0
c0
c0
c0
c0
c0
c0
c0
c0
c0
c0
c0
c0
c0
c0
c0
c0
c0
c0
c0
c0
c0
c0
c0
c0
c0
c0
c0
c0
c0
c0
c0
c0
c0
ENDCHAR
STARTCHAR RBracketBar4
ENCODING 167
SWIDTH 272 0
DWIDTH 7 0
BBX 2 50 2 -19
BITMAP
c0
c0
c0
c0
c0
c0
c0
c0
c0
c0
c0
c0
c0
c0
c0
c0
c0
c0
c0
c0
c0
c0
c0
c0
c0
c0
c0
c0
c0
c0
c0
c0
c0
c0
c0
c0
c0
c0
c0
c0
c0
c0
c0
c0
c0
c0
c0
c0
c0
c0
ENDCHAR
STARTCHAR ContourIntegral2
ENCODING 168
SWIDTH 681 0
DWIDTH 16 0
BBX 26 53 2 -16
BITMAP
00003f00
00006380
0000c3c0
0001c3c0
000381c0
00038000
00070000
00070000
000f0000
000f0000
000f0000
000f0000
000e0000
001e0000
001e0000
001e0000
001e0000
007f0000
01ffc000
079ef000
0e1e3800
0c1e1800
181e0c00
181e0c00
301e0600
303e0600
303e0600
303e0600
303e0600
303c0600
183c0c00
183c0c00
0c3c1800
063c3800
07bcf000
01ffc000
007f0000
003c0000
003c0000
003c0000
003c0000
00380000
00380000
00380000
00380000
00780000
00700000
00700000
e0700000
f0e00000
f0c00000
71800000
3f000000
ENDCHAR
STARTCHAR DblContInteg2
ENCODING 169
SWIDTH 1291 0
DWIDTH 31 0
BBX 41 53 2 -16
BITMAP
00003f007e00
00006380c700
0000c3c18780
0001c3c38780
000381c70380
000380070000
0007000e0000
0007000e0000
000f001e0000
000f001e0000
000f001e0000
000e001e0000
000e001c0000
001e003c0000
001e003c0000
001e003c0000
001e003c0000
007ffffe0000
01ffffff8000
039e003fc000
071e003ce000
0c1e003c3000
181e003c1800
181e003c1800
301e003c0c00
301e007c0c00
303e007c0c00
303e007c0c00
303e007c0c00
303c00780c00
183c00781800
183c00781800
0c3c00783000
063c00787000
03bc0079e000
01ffffff8000
007ffffe0000
003c00780000
003c00780000
003c00780000
003c00780000
003800700000
003800700000
003800700000
003800700000
007800f00000
007000e00000
007000e00000
e071c0e00000
f0e1e1c00000
f0c1e1800000
7180e3000000
3f007e000000
ENDCHAR
STARTCHAR CntrClckwContInteg2
ENCODING 170
SWIDTH 681 0
DWIDTH 16 0
BBX 27 53 2 -16
BITMAP
00003f00
00006380
0000c3c0
0001c3c0
000381c0
00038000
00070000
00070000
000f0000
000f0000
000f0000
000f0000
000e0000
001e0000
001e0000
001e0000
001e0000
007f0000
01ffc000
079ee000
0e1e3800
0c1e1800
181e0c00
181e0c00
301e0600
303e0600
303e0600
303e0f00
303e1680
303c2640
183c4c20
183c0c00
0c3c1c00
063c3800
07bcf000
01ffc000
007f0000
003c0000
003c0000
003c0000
003c0000
00380000
00380000
00380000
00380000
00780000
00700000
00700000
e0700000
f0e00000
f0c00000
71800000
3f000000
ENDCHAR
STARTCHAR ClckwContInteg2
ENCODING 171
SWIDTH 681 0
DWIDTH 16 0
BBX 27 53 1 -16
BITMAP
00001f80
000031c0
000061e0
0000e1e0
0001c0e0
0001c000
00038000
00038000
00078000
00078000
00078000
00078000
00070000
000f0000
000f0000
000f0000
000f0000
003f8000
00ffe000
01cf7800
030f1c00
060f0c00
0c0f0600
0c0f0600
180f0300
181f0300
181f0300
3c1f0300
7e1f0300
5a1e0300
8d1e0600
0c1e0600
061e0c00
071e1c00
03de7800
00ffe000
003f8000
001e0000
001e0000
001e0000
001e0000
001c0000
001c0000
001c0000
001c0000
003c0000
00380000
00380000
70380000
78700000
78600000
38c00000
1f800000
ENDCHAR
STARTCHAR SquareContInteg2
ENCODING 172
SWIDTH 681 0
DWIDTH 16 0
BBX 26 53 2 -16
BITMAP
00003f00
00006380
0000c3c0
0001c3c0
000381c0
00038000
00070000
00070000
00070000
000f0000
000f0000
000f0000
000e0000
000e0000
001e0000
001e0000
001e0000
001e0000
1ffffc00
1ffffc00
181e0c00
181e0c00
181e0c00
181e0c00
181e0c00
181e0c00
183e0c00
183e0c00
183e0c00
183c0c00
183c0c00
183c0c00
183c0c00
183c0c00
1ffffc00
1ffffc00
003c0000
003c0000
003c0000
003c0000
00380000
00380000
00380000
00380000
00380000
00780000
00700000
00700000
e0600000
f0e00000
f0c00000
71800000
3f000000
ENDCHAR
STARTCHAR UnionPlus2
ENCODING 173
SWIDTH 1295 0
DWIDTH 31 0
BBX 27 37 2 -11
BITMAP
c0000060
c0000060
c0000060
c0000060
c0000060
c0000060
c0000060
c0000060
c0000060
c0000060
c0000060
c0000060
c0000060
c0000060
c0000060
c00c0060
c00c0060
c00c0060
c00c0060
c00c0060
c00c0060
c3fff060
c3fff060
c00c0060
c00c0060
c00c0060
c00c0060
600c00c0
600c00c0
700000c0
30000180
18000300
1c000700
0e001e00
07c07c00
01fff000
003f8000
ENDCHAR
STARTCHAR SquareIntersection2
ENCODING 174
SWIDTH 1295 0
DWIDTH 31 0
BBX 27 37 2 -11
BITMAP
ffffffe0
ffffffe0
c0000060
c0000060
c0000060
c0000060
c0000060
c0000060
c0000060
c0000060
c0000060
c0000060
c0000060
c0000060
c0000060
c0000060
c0000060
c0000060
c0000060
c0000060
c0000060
c0000060
c0000060
c0000060
c0000060
c0000060
c0000060
c0000060
c0000060
c0000060
c0000060
c0000060
c0000060
c0000060
c0000060
c0000060
c0000060
ENDCHAR
STARTCHAR SquareUnion2
ENCODING 175
SWIDTH 1295 0
DWIDTH 31 0
BBX 27 37 2 -11
BITMAP
c0000060
c0000060
c0000060
c0000060
c0000060
c0000060
c0000060
c0000060
c0000060
c0000060
c0000060
c0000060
c0000060
c0000060
c0000060
c0000060
c0000060
c0000060
c0000060
c0000060
c0000060
c0000060
c0000060
c0000060
c0000060
c0000060
c0000060
c0000060
c0000060
c0000060
c0000060
c0000060
c0000060
c0000060
c0000060
ffffffe0
ffffffe0
ENDCHAR
STARTCHAR DblLBracketBar1
ENCODING 176
SWIDTH 516 0
DWIDTH 12 0
BBX 8 20 2 -4
BITMAP
c3
c3
c3
c3
c3
c3
c3
c3
c3
c3
c3
c3
c3
c3
c3
c3
c3
c3
c3
c3
ENDCHAR
STARTCHAR DblLBracketBar2
ENCODING 177
SWIDTH 516 0
DWIDTH 12 0
BBX 8 30 2 -9
BITMAP
c3
c3
c3
c3
c3
c3
c3
c3
c3
c3
c3
c3
c3
c3
c3
c3
c3
c3
c3
c3
c3
c3
c3
c3
c3
c3
c3
c3
c3
c3
ENDCHAR
STARTCHAR DblLBracketBar3
ENCODING 178
SWIDTH 516 0
DWIDTH 12 0
BBX 8 40 2 -14
BITMAP
c3
c3
c3
c3
c3
c3
c3
c3
c3
c3
c3
c3
c3
c3
c3
c3
c3
c3
c3
c3
c3
c3
c3
c3
c3
c3
c3
c3
c3
c3
c3
c3
c3
c3
c3
c3
c3
c3
c3
c3
ENDCHAR
STARTCHAR DblLBracketBar4
ENCODING 179
SWIDTH 516 0
DWIDTH 12 0
BBX 8 50 2 -19
BITMAP
c3
c3
c3
c3
c3
c3
c3
c3
c3
c3
c3
c3
c3
c3
c3
c3
c3
c3
c3
c3
c3
c3
c3
c3
c3
c3
c3
c3
c3
c3
c3
c3
c3
c3
c3
c3
c3
c3
c3
c3
c3
c3
c3
c3
c3
c3
c3
c3
c3
c3
ENDCHAR
STARTCHAR DblRBracketBar1
ENCODING 180
SWIDTH 516 0
DWIDTH 12 0
BBX 8 20 2 -4
BITMAP
c3
c3
c3
c3
c3
c3
c3
c3
c3
c3
c3
c3
c3
c3
c3
c3
c3
c3
c3
c3
ENDCHAR
STARTCHAR DblRBracketBar2
ENCODING 181
SWIDTH 516 0
DWIDTH 12 0
BBX 8 30 2 -9
BITMAP
c3
c3
c3
c3
c3
c3
c3
c3
c3
c3
c3
c3
c3
c3
c3
c3
c3
c3
c3
c3
c3
c3
c3
c3
c3
c3
c3
c3
c3
c3
ENDCHAR
STARTCHAR DblRBracketBar3
ENCODING 182
SWIDTH 516 0
DWIDTH 12 0
BBX 8 40 2 -14
BITMAP
c3
c3
c3
c3
c3
c3
c3
c3
c3
c3
c3
c3
c3
c3
c3
c3
c3
c3
c3
c3
c3
c3
c3
c3
c3
c3
c3
c3
c3
c3
c3
c3
c3
c3
c3
c3
c3
c3
c3
c3
ENDCHAR
STARTCHAR DblRBracketBar4
ENCODING 183
SWIDTH 516 0
DWIDTH 12 0
BBX 8 50 2 -19
BITMAP
c3
c3
c3
c3
c3
c3
c3
c3
c3
c3
c3
c3
c3
c3
c3
c3
c3
c3
c3
c3
c3
c3
c3
c3
c3
c3
c3
c3
c3
c3
c3
c3
c3
c3
c3
c3
c3
c3
c3
c3
c3
c3
c3
c3
c3
c3
c3
c3
c3
c3
ENDCHAR
STARTCHAR ContourIntegral3
ENCODING 184
SWIDTH 968 0
DWIDTH 23 0
BBX 37 79 2 -28
BITMAP
0000001f80
00000071e0
000000e0f0
000001c0f8
00000380f8
0000078078
00000f0038
00000f0000
00001e0000
00001e0000
00001e0000
00003e0000
00003c0000
00003c0000
00003c0000
00007c0000
00007c0000
00007c0000
00007c0000
0000780000
0000780000
0000f80000
0000f80000
0000f80000
0000f80000
0000f80000
0007fe0000
001fff8000
007cfbc000
00e0f8e000
01c0f83000
0380f81800
0700f81c00
0600f80c00
0e00f80600
0c00f80600
0c00f80600
1800f80300
1801f80300
1801f80300
1801f80300
1801f80300
1801f80300
1801f00300
0c01f00600
0c01f00600
0c01f00600
0601f00c00
0701f01c00
0381f03800
01c1f03000
00e1f0e000
0079f3c000
001fff8000
0007fe0000
0001f00000
0001f00000
0001f00000
0001f00000
0001e00000
0001e00000
0001e00000
0001e00000
0001e00000
0003e00000
0003e00000
0003c00000
0003c00000
0003c00000
0003c00000
0007800000
0007800000
e007000000
f00f000000
f80e000000
f81c000000
783c000000
3c70000000
0fc0000000
ENDCHAR
STARTCHAR DblContInteg3
ENCODING 185
SWIDTH 1887 0
DWIDTH 45 0
BBX 59 79 2 -28
BITMAP
0000001f80007e00
00000071e001c780
000000e0f00383c0
000001c0f80703e0
00000380f80e03e0
00000780781e01e0
00000f00383c00e0
00000f00003c0000
00001e0000780000
00001e0000780000
00001e0000780000
00003e0000f80000
00003c0000f00000
00003c0000f00000
00003c0000f00000
00007c0001f00000
00007c0001f00000
00007c0001f00000
00007c0001f00000
0000780001f00000
0000780001e00000
0000f80003e00000
0000f80003e00000
0000f80003e00000
0000f80003e00000
0000f80003e00000
0007ffffffe00000
001ffffffffc0000
007cf80003ff0000
00e0f80003e38000
01c0f80003e1c000
0380f80003e0e000
0700f80003e07000
0600f80003e03000
0e00f80003e01800
0c00f80003e01800
0c00f80003e01800
1800f80003e00c00
1801f80007e00c00
1801f80007e00c00
1801f80007e00c00
1801f80007e00c00
1801f80007e00c00
1801f00007e00c00
0c01f00007c01c00
0c01f00007c01800
0e01f00007c01800
0601f00007c03000
0701f00007c07000
0381f00007c06000
01c1f00007c0c000
00f1f00007c38000
003df00007cf0000
001ffffffffe0000
0003fffffff00000
0001f00007c00000
0001f00007c00000
0001f00007c00000
0001f00007c00000
0001f00007800000
0001e00007800000
0001e00007800000
0001e00007800000
0001e00007800000
0003e0000f800000
0003e0000f800000
0003c0000f000000
0003c0000f000000
0003c0000f000000
0003c0000f000000
000780001e000000
000780001e000000
e00703801c000000
f00f03c03c000000
f80e03e038000000
f81c03e070000000
783c01e0f0000000
3c7000f1c0000000
0fc0003f00000000
ENDCHAR
STARTCHAR CntrClckwContInteg3
ENCODING 186
SWIDTH 968 0
DWIDTH 23 0
BBX 37 79 2 -28
BITMAP
0000001f80
00000071e0
000000e0f0
000001c0f8
00000380f8
0000078078
00000f0038
00000f0000
00001e0000
00001e0000
00001e0000
00003e0000
00003c0000
00003c0000
00003c0000
00007c0000
00007c0000
00007c0000
00007c0000
0000780000
0000780000
0000f80000
0000f80000
0000f80000
0000f80000
0000f80000
0007fe0000
001fff8000
007cfbc000
00e0f8e000
01c0f83000
0380f81800
0700f81c00
0600f80c00
0e00f80600
0c00f80600
0c00f80300
1800f80300
1801f80300
1801f80300
1801f80780
1801f80f40
1801f81b20
1801f02310
0c01f04708
0c01f00600
0c01f00600
0601f00c00
0701f01c00
0381f01800
01c1f03000
00e1f0f000
0079f3c000
001fff8000
0007fe0000
0001f00000
0001f00000
0001f00000
0001f00000
0001e00000
0001e00000
0001e00000
0001e00000
0001e00000
0003e00000
0003e00000
0003c00000
0003c00000
0003c00000
0003c00000
0007800000
0007800000
e007000000
f00f000000
f80e000000
f81c000000
783c000000
3c70000000
0fc0000000
ENDCHAR
STARTCHAR ClckwContInteg3
ENCODING 187
SWIDTH 968 0
DWIDTH 23 0
BBX 39 79 0 -28
BITMAP
00000007e0
0000001c78
000000383c
000000703e
000000e03e
000001e01e
000003c00e
000003c000
0000078000
0000078000
0000078000
00000f8000
00000f0000
00000f0000
00000f0000
00001f0000
00001f0000
00001f0000
00001f0000
00001e0000
00001e0000
00003e0000
00003e0000
00003e0000
00003e0000
00003e0000
0001ff8000
0007ffe000
001f3ef000
00383e3800
00703e0c00
00e03e0600
01c03e0700
01803e0300
03003e0180
03003e0180
07003e0180
06003e00c0
06007e00c0
06007e00c0
0f007e00c0
16807e00c0
26407e00c0
46207c00c0
83107c0180
03007c0180
03007c0180
01807c0300
01c07c0700
00e07c0e00
00707c0c00
00387c3800
001e7cf000
0007ffe000
0001ff8000
00007c0000
00007c0000
00007c0000
00007c0000
0000780000
0000780000
0000780000
0000780000
0000780000
0000f80000
0000f80000
0000f00000
0000f00000
0000f00000
0000f00000
0001e00000
0001e00000
3801c00000
3c03c00000
3e03800000
3e07000000
1e0f000000
0f1c000000
03f0000000
ENDCHAR
STARTCHAR SquareContInteg3
ENCODING 188
SWIDTH 968 0
DWIDTH 23 0
BBX 37 79 2 -28
BITMAP
0000001f80
00000071e0
000000e0f0
000001c0f8
00000380f8
0000078078
00000f0038
00000f0000
00001e0000
00001e0000
00001e0000
00003e0000
00003c0000
00003c0000
00003c0000
00007c0000
00007c0000
00007c0000
00007c0000
00007c0000
0000780000
0000f80000
0000f80000
0000f80000
0000f80000
0000f80000
0000f80000
07ffffff00
07ffffff00
0600f80300
0600f80300
0600f80300
0600f80300
0600f80300
0600f80300
0600f80300
0600f80300
0600f80300
0600f80300
0601f80300
0601f80300
0601f80300
0601f80300
0601f00300
0601f00300
0601f00300
0601f00300
0601f00300
0601f00300
0601f00300
0601f00300
0601f00300
07ffffff00
07ffffff00
0001f00000
0001f00000
0001f00000
0001f00000
0001f00000
0001e00000
0001e00000
0001e00000
0001e00000
0001e00000
0003e00000
0003c00000
0003c00000
0003c00000
0003c00000
0003800000
0007800000
0007800000
e007000000
f00f000000
f80e000000
f81c000000
7838000000
3c70000000
0fc0000000
ENDCHAR
STARTCHAR UnionPlus3
ENCODING 189
SWIDTH 1988 0
DWIDTH 48 0
BBX 44 55 3 -19
BITMAP
e00000000070
e00000000070
e00000000070
e00000000070
e00000000070
e00000000070
e00000000070
e00000000070
e00000000070
e00000000070
e00000000070
e00000000070
e00000000070
e00000000070
e00000000070
e00000000070
e00000000070
e00000000070
e00000000070
e00000000070
e00000000070
e00007000070
e00007000070
e00007000070
e00007000070
e00007000070
e00007000070
e00007000070
e00007000070
e00007000070
e00007000070
e00007000070
e00007000070
e03fffffe070
e03fffffe070
e03fffffe070
e00007000070
e00007000070
7000070000e0
7000070000e0
7000070000e0
3800070001c0
3800070003c0
1c0007000380
1e0007000780
0f0007000f00
070000001e00
078000003e00
03e000007c00
01f00001f800
007c0007e000
003f803fc000
000fffff0000
0003fffc0000
00007fe00000
ENDCHAR
STARTCHAR SquareIntersection3
ENCODING 190
SWIDTH 2064 0
DWIDTH 50 0
BBX 44 55 3 -19
BITMAP
fffffffffff0
fffffffffff0
fffffffffff0
e00000000070
e00000000070
e00000000070
e00000000070
e00000000070
e00000000070
e00000000070
e00000000070
e00000000070
e00000000070
e00000000070
e00000000070
e00000000070
e00000000070
e00000000070
e00000000070
e00000000070
e00000000070
e00000000070
e00000000070
e00000000070
e00000000070
e00000000070
e00000000070
e00000000070
e00000000070
e00000000070
e00000000070
e00000000070
e00000000070
e00000000070
e00000000070
e00000000070
e00000000070
e00000000070
e00000000070
e00000000070
e00000000070
e00000000070
e00000000070
e00000000070
e00000000070
e00000000070
e00000000070
e00000000070
e00000000070
e00000000070
e00000000070
e00000000070
e00000000070
e00000000070
e00000000070
ENDCHAR
STARTCHAR SquareUnion3
ENCODING 191
SWIDTH 2064 0
DWIDTH 50 0
BBX 44 55 3 -19
BITMAP
e00000000070
e00000000070
e00000000070
e00000000070
e00000000070
e00000000070
e00000000070
e00000000070
e00000000070
e00000000070
e00000000070
e00000000070
e00000000070
e00000000070
e00000000070
e00000000070
e00000000070
e00000000070
e00000000070
e00000000070
e00000000070
e00000000070
e00000000070
e00000000070
e00000000070
e00000000070
e00000000070
e00000000070
e00000000070
e00000000070
e00000000070
e00000000070
e00000000070
e00000000070
e00000000070
e00000000070
e00000000070
e00000000070
e00000000070
e00000000070
e00000000070
e00000000070
e00000000070
e00000000070
e00000000070
e00000000070
e00000000070
e00000000070
e00000000070
e00000000070
e00000000070
e00000000070
fffffffffff0
fffffffffff0
fffffffffff0
ENDCHAR
STARTCHAR DblBar1
ENCODING 192
SWIDTH 516 0
DWIDTH 12 0
BBX 8 20 2 -4
BITMAP
c3
c3
c3
c3
c3
c3
c3
c3
c3
c3
c3
c3
c3
c3
c3
c3
c3
c3
c3
c3
ENDCHAR
STARTCHAR DblBar2
ENCODING 193
SWIDTH 516 0
DWIDTH 12 0
BBX 8 30 2 -9
BITMAP
c3
c3
c3
c3
c3
c3
c3
c3
c3
c3
c3
c3
c3
c3
c3
c3
c3
c3
c3
c3
c3
c3
c3
c3
c3
c3
c3
c3
c3
c3
ENDCHAR
STARTCHAR DblBar3
ENCODING 194
SWIDTH 516 0
DWIDTH 12 0
BBX 8 40 2 -14
BITMAP
c3
c3
c3
c3
c3
c3
c3
c3
c3
c3
c3
c3
c3
c3
c3
c3
c3
c3
c3
c3
c3
c3
c3
c3
c3
c3
c3
c3
c3
c3
c3
c3
c3
c3
c3
c3
c3
c3
c3
c3
ENDCHAR
STARTCHAR DblBar4
ENCODING 195
SWIDTH 516 0
DWIDTH 12 0
BBX 8 50 2 -19
BITMAP
c3
c3
c3
c3
c3
c3
c3
c3
c3
c3
c3
c3
c3
c3
c3
c3
c3
c3
c3
c3
c3
c3
c3
c3
c3
c3
c3
c3
c3
c3
c3
c3
c3
c3
c3
c3
c3
c3
c3
c3
c3
c3
c3
c3
c3
c3
c3
c3
c3
c3
ENDCHAR
STARTCHAR BarExt
ENCODING 196
SWIDTH 272 0
DWIDTH 7 0
BBX 2 9 2 -1
BITMAP
c0
c0
c0
c0
c0
c0
c0
c0
c0
ENDCHAR
STARTCHAR DblBarExt
ENCODING 197
SWIDTH 516 0
DWIDTH 12 0
BBX 8 9 2 -1
BITMAP
c3
c3
c3
c3
c3
c3
c3
c3
c3
ENDCHAR
STARTCHAR OverCircle
ENCODING 198
SWIDTH 267 0
DWIDTH 6 0
BBX 6 6 0 -1
BITMAP
78
fc
cc
cc
fc
78
ENDCHAR
STARTCHAR Hacek
ENCODING 199
SWIDTH 371 0
DWIDTH 9 0
BBX 9 5 0 1
BITMAP
c180
6300
3e00
3e00
1c00
ENDCHAR
STARTCHAR VertBar1
ENCODING 200
SWIDTH 272 0
DWIDTH 7 0
BBX 2 20 2 -4
BITMAP
c0
c0
c0
c0
c0
c0
c0
c0
c0
c0
c0
c0
c0
c0
c0
c0
c0
c0
c0
c0
ENDCHAR
STARTCHAR VertBar2
ENCODING 201
SWIDTH 272 0
DWIDTH 7 0
BBX 2 30 2 -9
BITMAP
c0
c0
c0
c0
c0
c0
c0
c0
c0
c0
c0
c0
c0
c0
c0
c0
c0
c0
c0
c0
c0
c0
c0
c0
c0
c0
c0
c0
c0
c0
ENDCHAR
STARTCHAR Nbspace
ENCODING 202
SWIDTH 189 0
DWIDTH 5 0
BBX 0 0 0 0
BITMAP
ENDCHAR
STARTCHAR VertBar3
ENCODING 203
SWIDTH 272 0
DWIDTH 7 0
BBX 2 40 2 -14
BITMAP
c0
c0
c0
c0
c0
c0
c0
c0
c0
c0
c0
c0
c0
c0
c0
c0
c0
c0
c0
c0
c0
c0
c0
c0
c0
c0
c0
c0
c0
c0
c0
c0
c0
c0
c0
c0
c0
c0
c0
c0
ENDCHAR
STARTCHAR VertBar4
ENCODING 204
SWIDTH 272 0
DWIDTH 7 0
BBX 2 50 2 -19
BITMAP
c0
c0
c0
c0
c0
c0
c0
c0
c0
c0
c0
c0
c0
c0
c0
c0
c0
c0
c0
c0
c0
c0
c0
c0
c0
c0
c0
c0
c0
c0
c0
c0
c0
c0
c0
c0
c0
c0
c0
c0
c0
c0
c0
c0
c0
c0
c0
c0
c0
c0
ENDCHAR
STARTCHAR FIntegral
ENCODING 205
SWIDTH 430 0
DWIDTH 10 0
BBX 15 31 1 -6
BITMAP
003c
006e
00ce
00c6
01c0
0180
0180
0180
0380
0380
0380
0380
0398
03f0
0380
1f80
2380
0380
0380
0380
0380
0380
0380
0380
0380
0380
0300
c700
e600
e600
7c00
ENDCHAR
STARTCHAR FIntegral2
ENCODING 206
SWIDTH 681 0
DWIDTH 16 0
BBX 26 53 2 -16
BITMAP
00003f00
00006380
0000c3c0
0001c3c0
000381c0
00038000
00078000
00070000
00070000
000f0000
000f0000
000f0000
000f0000
000e0000
000e0000
001e0000
001e0000
001e0000
001e0000
001e1800
001efc00
001ff000
007f0000
07fe0000
1f9e0000
0c1e0000
001e0000
001e0000
003e0000
003e0000
003e0000
003c0000
003c0000
003c0000
003c0000
003c0000
003c0000
003c0000
003c0000
003c0000
003c0000
003c0000
00380000
00380000
00380000
00780000
00700000
00700000
e0700000
f0e00000
f0c00000
71800000
3f000000
ENDCHAR
STARTCHAR FIntegral3
ENCODING 207
SWIDTH 968 0
DWIDTH 23 0
BBX 37 79 2 -28
BITMAP
0000001f80
00000071e0
000000e0f0
000001c0f8
00000380f8
0000078078
0000070038
00000f0000
00000f0000
00001e0000
00001e0000
00001e0000
00003e0000
00003c0000
00003c0000
00003c0000
00007c0000
00007c0000
00007c0000
00007c0000
00007c0000
00007c0000
0000780000
0000780000
0000f80000
0000f80000
0000f80000
0000f80600
0000f83f00
0000f9fc00
0000ffe000
0000ff0000
0007f80000
003ff80000
01fcf80000
07e0f80000
0300f80000
0000f80000
0000f80000
0000f80000
0000f80000
0001f80000
0001f80000
0001f80000
0001f80000
0001f80000
0001f00000
0001f00000
0001f00000
0001f00000
0001f00000
0001f00000
0001f00000
0001f00000
0001f00000
0001f00000
0001f00000
0001f00000
0001f00000
0001f00000
0001f00000
0001e00000
0001e00000
0001e00000
0003e00000
0003e00000
0003e00000
0003c00000
0003c00000
0003c00000
0007800000
0007800000
e007800000
f00f000000
f80e000000
f81e000000
783c000000
3c70000000
0fc0000000
ENDCHAR
STARTCHAR OverDoubleDot
ENCODING 208
SWIDTH 360 0
DWIDTH 9 0
BBX 8 3 0 1
BITMAP
e7
e7
e7
ENDCHAR
STARTCHAR OverTripleDot
ENCODING 209
SWIDTH 579 0
DWIDTH 14 0
BBX 13 3 0 1
BITMAP
e738
e738
e738
ENDCHAR
STARTCHAR OverLVector
ENCODING 210
SWIDTH 467 0
DWIDTH 11 0
BBX 11 5 0 1
BITMAP
0800
1c00
3800
7fe0
ffe0
ENDCHAR
STARTCHAR OverRVector
ENCODING 211
SWIDTH 467 0
DWIDTH 11 0
BBX 11 5 0 1
BITMAP
0200
0700
0380
ffc0
ffe0
ENDCHAR
STARTCHAR OverLRVector
ENCODING 212
SWIDTH 650 0
DWIDTH 16 0
BBX 16 5 0 1
BITMAP
0810
1c38
381c
7ffe
ffff
ENDCHAR
STARTCHAR OverLArrow
ENCODING 213
SWIDTH 428 0
DWIDTH 10 0
BBX 10 8 0 -2
BITMAP
1000
3800
7000
ffc0
ffc0
7000
3800
1000
ENDCHAR
STARTCHAR OverArrowVectExt
ENCODING 214
SWIDTH 200 0
DWIDTH 5 0
BBX 5 2 0 1
BITMAP
f8
f8
ENDCHAR
STARTCHAR OverRArrow
ENCODING 215
SWIDTH 428 0
DWIDTH 10 0
BBX 10 8 0 -2
BITMAP
0200
0700
0380
ffc0
ffc0
0380
0700
0200
ENDCHAR
STARTCHAR OverLRArrow
ENCODING 216
SWIDTH 572 0
DWIDTH 14 0
BBX 14 8 0 -2
BITMAP
1020
3870
7038
fffc
fffc
7038
3870
1020
ENDCHAR
STARTCHAR Integral
ENCODING 217
SWIDTH 430 0
DWIDTH 10 0
BBX 15 31 1 -6
BITMAP
003c
006e
00ce
00c6
01c0
0180
0180
0180
0380
0380
0380
0380
0380
0380
0380
0380
0380
0380
0380
0380
0380
0380
0380
0380
0380
0300
0300
c700
e600
e600
7800
ENDCHAR
STARTCHAR Summation
ENCODING 218
SWIDTH 842 0
DWIDTH 20 0
BBX 17 22 1 -4
BITMAP
7fff00
3c0700
1c0300
1e0100
0f0100
070000
078000
038000
01c000
01e000
00e000
004000
008000
010000
020000
060080
0c0080
080180
100380
3fff80
7fff80
ffff80
ENDCHAR
STARTCHAR Product
ENCODING 219
SWIDTH 951 0
DWIDTH 23 0
BBX 19 22 2 -4
BITMAP
ffffe0
3fff80
380380
380380
380380
380380
380380
380380
380380
380380
380380
380380
380380
380380
380380
380380
380380
380380
380380
380380
380380
fe0fe0
ENDCHAR
STARTCHAR Intersection
ENCODING 220
SWIDTH 893 0
DWIDTH 21 0
BBX 17 22 2 -4
BITMAP
c00180
c00180
c00180
c00180
c00180
c00180
c00180
c00180
c00180
c00180
c00180
c00180
c00180
c00180
c00180
c00180
600300
600300
300600
3c1c00
0ff800
03e000
ENDCHAR
STARTCHAR Union
ENCODING 221
SWIDTH 893 0
DWIDTH 21 0
BBX 17 22 2 -4
BITMAP
03e000
0ff800
3c1c00
300600
600300
600300
c00180
c00180
c00180
c00180
c00180
c00180
c00180
c00180
c00180
c00180
c00180
c00180
c00180
c00180
c00180
c00180
ENDCHAR
STARTCHAR LogicalOr
ENCODING 222
SWIDTH 669 0
DWIDTH 16 0
BBX 15 16 1 0
BITMAP
e00e
600c
701c
3018
3018
3838
1830
1c70
0c60
0c60
06c0
06c0
07c0
0380
0380
0100
ENDCHAR
STARTCHAR LogicalAnd
ENCODING 223
SWIDTH 669 0
DWIDTH 16 0
BBX 15 16 1 0
BITMAP
0100
0380
0380
07c0
06c0
06c0
0c60
0c60
1c70
1830
3838
3018
3018
701c
600c
e00e
ENDCHAR
STARTCHAR Integral1
ENCODING 224
SWIDTH 681 0
DWIDTH 16 0
BBX 26 53 2 -16
BITMAP
00003f00
00006380
0000c3c0
0001c3c0
000381c0
00038000
00078000
00070000
00070000
000f0000
000f0000
000f0000
000f0000
000e0000
001e0000
001e0000
001e0000
001e0000
001e0000
001e0000
001e0000
001e0000
001e0000
001e0000
001e0000
001e0000
003e0000
003e0000
003e0000
003e0000
003e0000
003c0000
003c0000
003c0000
003c0000
003c0000
003c0000
003c0000
003c0000
003c0000
003c0000
003c0000
00380000
00380000
00380000
00780000
00700000
00700000
e0700000
f0e00000
f0c00000
71800000
3f000000
ENDCHAR
STARTCHAR Integral2
ENCODING 225
SWIDTH 968 0
DWIDTH 23 0
BBX 37 79 2 -28
BITMAP
0000001f80
00000070e0
000000e0f0
000001c0f8
00000380f8
0000078078
00000f0038
00000f0000
00001f0000
00001e0000
00001e0000
00003e0000
00003e0000
00003c0000
00003c0000
00007c0000
00007c0000
00007c0000
00007c0000
00007c0000
00007c0000
0000fc0000
0000f80000
0000f80000
0000f80000
0000f80000
0000f80000
0000f80000
0000f80000
0000f80000
0000f80000
0000f80000
0000f80000
0000f80000
0000f80000
0000f80000
0000f80000
0000f80000
0001f80000
0001f80000
0001f80000
0001f80000
0001f80000
0001f80000
0001f80000
0001f80000
0001f00000
0001f00000
0001f00000
0001f00000
0001f00000
0001f00000
0001f00000
0001f00000
0001f00000
0001f00000
0001f00000
0001f00000
0001f00000
0001f00000
0001f00000
0001e00000
0001e00000
0001e00000
0003e00000
0003e00000
0003e00000
0003c00000
0003c00000
0003c00000
0007800000
0007800000
e007800000
f00f000000
f80e000000
f81e000000
783c000000
3c70000000
0fc0000000
ENDCHAR
STARTCHAR Sum1
ENCODING 226
SWIDTH 1351 0
DWIDTH 32 0
BBX 29 37 1 -11
BITMAP
7fffffe0
3fffffe0
1e0001e0
0e0000e0
0f000060
07800060
03800060
01c00020
01e00020
00f00000
00700000
00780000
003c0000
001e0000
000e0000
000f0000
00078000
0003c000
00018000
00030000
00070000
000e0000
001c0000
00180000
00300000
00700000
00e00008
01c00008
01800018
03000018
07000018
0e000038
0c000070
180000f0
3ffffff0
7ffffff0
fffffff0
ENDCHAR
STARTCHAR Sum2
ENCODING 227
SWIDTH 1918 0
DWIDTH 46 0
BBX 43 55 1 -19
BITMAP
3fffffffff80
1fffffffff80
0f8000000f80
078000000780
07c000000380
03e000000380
01f000000180
01f000000180
00f800000180
007c00000180
003e00000080
003e00000080
001f00000000
000f80000000
000f80000000
0007c0000000
0003e0000000
0001f0000000
0001f0000000
0000f8000000
00007c000000
00003c000000
00003e000000
00001f000000
00000f800000
00000f800000
000007c00000
000003c00000
000007800000
00000f000000
00001e000000
00001c000000
00003c000000
000078000000
0000f0000000
0001e0000000
0001e0000000
0003c0000000
000780000000
000f00000000
000e00000000
001e00000060
003c00000060
007800000060
00f0000000e0
00e0000000e0
01e0000000e0
03c0000001e0
0780000001c0
0f00000003c0
0e00000007c0
1e0000000fc0
3fffffffffc0
7fffffffffc0
ffffffffffc0
ENDCHAR
STARTCHAR Product1
ENCODING 228
SWIDTH 1361 0
DWIDTH 33 0
BBX 29 37 2 -11
BITMAP
fffffff8
3c0001e0
3c0001e0
3c0001e0
3c0001e0
3c0001e0
3c0001e0
3c0001e0
3c0001e0
3c0001e0
3c0001e0
3c0001e0
3c0001e0
3c0001e0
3c0001e0
3c0001e0
3c0001e0
3c0001e0
3c0001e0
3c0001e0
3c0001e0
3c0001e0
3c0001e0
3c0001e0
3c0001e0
3c0001e0
3c0001e0
3c0001e0
3c0001e0
3c0001e0
3c0001e0
3c0001e0
3c0001e0
3c0001e0
3c0001e0
3c0001e0
ff0007f8
ENDCHAR
STARTCHAR Product2
ENCODING 229
SWIDTH 1883 0
DWIDTH 45 0
BBX 41 55 2 -19
BITMAP
ffffffffff80
3ffffffffe00
1e0000003c00
1e0000003c00
1e0000003c00
1e0000003c00
1e0000003c00
1e0000003c00
1e0000003c00
1e0000003c00
1e0000003c00
1e0000003c00
1e0000003c00
1e0000003c00
1e0000003c00
1e0000003c00
1e0000003c00
1e0000003c00
1e0000003c00
1e0000003c00
1e0000003c00
1e0000003c00
1e0000003c00
1e0000003c00
1e0000003c00
1e0000003c00
1e0000003c00
1e0000003c00
1e0000003c00
1e0000003c00
1e0000003c00
1e0000003c00
1e0000003c00
1e0000003c00
1e0000003c00
1e0000003c00
1e0000003c00
1e0000003c00
1e0000003c00
1e0000003c00
1e0000003c00
1e0000003c00
1e0000003c00
1e0000003c00
1e0000003c00
1e0000003c00
1e0000003c00
1e0000003c00
1e0000003c00
1e0000003c00
1e0000003c00
1e0000003c00
1e0000003c00
3f0000007e00
ffc00001ff80
ENDCHAR
STARTCHAR Union1
ENCODING 230
SWIDTH 1295 0
DWIDTH 31 0
BBX 27 37 2 -11
BITMAP
c0000060
c0000060
c0000060
c0000060
c0000060
c0000060
c0000060
c0000060
c0000060
c0000060
c0000060
c0000060
c0000060
c0000060
c0000060
c0000060
c0000060
c0000060
c0000060
c0000060
c0000060
c0000060
c0000060
c0000060
c0000060
c0000060
c0000060
600000c0
600000c0
700000c0
30000180
18000300
1c000700
0e001e00
07c07c00
01fff000
003f8000
ENDCHAR
STARTCHAR Union2
ENCODING 231
SWIDTH 2064 0
DWIDTH 50 0
BBX 44 55 3 -19
BITMAP
e00000000070
e00000000070
e00000000070
e00000000070
e00000000070
e00000000070
e00000000070
e00000000070
e00000000070
e00000000070
e00000000070
e00000000070
e00000000070
e00000000070
e00000000070
e00000000070
e00000000070
e00000000070
e00000000070
e00000000070
e00000000070
e00000000070
e00000000070
e00000000070
e00000000070
e00000000070
e00000000070
e00000000070
e00000000070
e00000000070
e00000000070
e00000000070
e00000000070
e00000000070
e00000000070
e00000000070
e00000000070
e00000000070
7000000000e0
7000000000e0
7000000000e0
3800000001c0
3800000003c0
1c0000000380
1e0000000780
0f0000000f00
070000001e00
078000003e00
03e000007c00
01f00001f800
007c0007e000
003f803fc000
000fffff0000
0003fffc0000
00007fe00000
ENDCHAR
STARTCHAR Intersect1
ENCODING 232
SWIDTH 1295 0
DWIDTH 31 0
BBX 27 37 2 -10
BITMAP
003f8000
01fff000
07c07c00
0e001e00
1c000700
18000300
30000180
700000c0
600000c0
600000c0
c0000060
c0000060
c0000060
c0000060
c0000060
c0000060
c0000060
c0000060
c0000060
c0000060
c0000060
c0000060
c0000060
c0000060
c0000060
c0000060
c0000060
c0000060
c0000060
c0000060
c0000060
c0000060
c0000060
c0000060
c0000060
c0000060
c0000060
ENDCHAR
STARTCHAR Intersect2
ENCODING 233
SWIDTH 2064 0
DWIDTH 50 0
BBX 44 55 3 -20
BITMAP
00007fe00000
0003fffc0000
000fffff0000
003f803fc000
007c0007e000
01f00001f800
03e000007c00
078000003e00
070000001e00
0f0000000f00
1e0000000780
1c0000000380
3800000003c0
3800000001c0
7000000000e0
7000000000e0
7000000000e0
e00000000070
e00000000070
e00000000070
e00000000070
e00000000070
e00000000070
e00000000070
e00000000070
e00000000070
e00000000070
e00000000070
e00000000070
e00000000070
e00000000070
e00000000070
e00000000070
e00000000070
e00000000070
e00000000070
e00000000070
e00000000070
e00000000070
e00000000070
e00000000070
e00000000070
e00000000070
e00000000070
e00000000070
e00000000070
e00000000070
e00000000070
e00000000070
e00000000070
e00000000070
e00000000070
e00000000070
e00000000070
e00000000070
ENDCHAR
STARTCHAR Or1
ENCODING 234
SWIDTH 840 0
DWIDTH 20 0
BBX 19 22 1 -4
BITMAP
e000e0
6000c0
7001c0
7001c0
300180
380380
180300
1c0700
1c0700
0c0600
0e0e00
060c00
071c00
031800
031800
03b800
01b000
01f000
00e000
00e000
00e000
004000
ENDCHAR
STARTCHAR Or2
ENCODING 235
SWIDTH 1256 0
DWIDTH 30 0
BBX 29 37 1 -11
BITMAP
e0000038
70000070
70000070
70000070
380000e0
380000e0
380000e0
1c0001c0
1c0001c0
0e000380
0e000380
0e000380
07000700
07000700
07000700
03800e00
03800e00
01800c00
01c01c00
01c01c00
00e03800
00e03800
00603000
00707000
00707000
00306000
0038e000
0038e000
0018c000
001dc000
000d8000
000f8000
000f8000
00070000
00070000
00070000
00020000
ENDCHAR
STARTCHAR And1
ENCODING 236
SWIDTH 840 0
DWIDTH 20 0
BBX 19 22 1 -4
BITMAP
004000
00e000
00e000
00e000
01f000
01b000
03b800
031800
031800
071c00
060c00
0e0e00
0c0600
1c0700
1c0700
180300
380380
300180
7001c0
7001c0
6000c0
e000e0
ENDCHAR
STARTCHAR And2
ENCODING 237
SWIDTH 1256 0
DWIDTH 30 0
BBX 29 37 1 -10
BITMAP
00020000
00070000
00070000
00070000
000f8000
000f8000
000d8000
001dc000
0018c000
0038e000
0038e000
00306000
00707000
00707000
00603000
00e03800
00e03800
01c01c00
01c01c00
01800c00
03800e00
03800e00
07000700
07000700
07000700
0e000380
0e000380
0e000380
1c0001c0
1c0001c0
380000e0
380000e0
380000e0
70000070
70000070
70000070
e0000038
ENDCHAR
STARTCHAR SmallVee
ENCODING 238
SWIDTH 660 0
DWIDTH 16 0
BBX 13 10 1 1
BITMAP
e038
7070
7070
38e0
18c0
1dc0
0f80
0f80
0700
0200
ENDCHAR
STARTCHAR SmallWedge
ENCODING 239
SWIDTH 660 0
DWIDTH 16 0
BBX 13 10 1 2
BITMAP
0200
0700
0700
0f80
1dc0
18c0
38e0
3060
7070
e038
ENDCHAR
STARTCHAR DoubleGrave
ENCODING 240
SWIDTH 467 0
DWIDTH 11 0
BBX 11 5 0 1
BITMAP
c600
e700
7380
18c0
0c60
ENDCHAR
STARTCHAR Breve
ENCODING 241
SWIDTH 322 0
DWIDTH 8 0
BBX 8 5 0 0
BITMAP
81
c3
e7
7e
3c
ENDCHAR
STARTCHAR DownBreve
ENCODING 242
SWIDTH 322 0
DWIDTH 8 0
BBX 8 5 0 0
BITMAP
3c
7e
e7
c3
81
ENDCHAR
STARTCHAR OverTilde
ENCODING 243
SWIDTH 357 0
DWIDTH 9 0
BBX 9 3 0 1
BITMAP
3880
7f80
8f00
ENDCHAR
STARTCHAR Tilde2
ENCODING 244
SWIDTH 666 0
DWIDTH 16 0
BBX 16 3 0 1
BITMAP
3f03
7ffe
80fc
ENDCHAR
STARTCHAR Tilde3
ENCODING 245
SWIDTH 1000 0
DWIDTH 24 0
BBX 24 4 0 1
BITMAP
0fe001
3ffe06
607ffc
8007f0
ENDCHAR
STARTCHAR Tilde4
ENCODING 246
SWIDTH 1333 0
DWIDTH 32 0
BBX 32 4 0 1
BITMAP
03fc0001
1ffff00e
700ffff8
80003fc0
ENDCHAR
STARTCHAR BackQuote
ENCODING 247
SWIDTH 348 0
DWIDTH 8 0
BBX 5 7 1 11
BITMAP
30
38
78
70
60
c0
80
ENDCHAR
STARTCHAR DblBackQuote
ENCODING 248
SWIDTH 577 0
DWIDTH 14 0
BBX 11 7 1 11
BITMAP
30c0
38e0
79e0
71c0
6180
c300
8200
ENDCHAR
STARTCHAR Quote
ENCODING 249
SWIDTH 348 0
DWIDTH 8 0
BBX 5 7 1 11
BITMAP
60
e0
f0
70
30
18
08
ENDCHAR
STARTCHAR DblQuote
ENCODING 250
SWIDTH 577 0
DWIDTH 14 0
BBX 11 7 1 11
BITMAP
6180
e380
f3c0
71c0
30c0
1860
0820
ENDCHAR
STARTCHAR VertBar
ENCODING 251
SWIDTH 272 0
DWIDTH 7 0
BBX 2 17 2 -1
BITMAP
c0
c0
c0
c0
c0
c0
c0
c0
c0
c0
c0
c0
c0
c0
c0
c0
c0
ENDCHAR
STARTCHAR DblVertBar
ENCODING 252
SWIDTH 516 0
DWIDTH 12 0
BBX 8 17 2 -1
BITMAP
c3
c3
c3
c3
c3
c3
c3
c3
c3
c3
c3
c3
c3
c3
c3
c3
c3
ENDCHAR
STARTCHAR VertBarExten
ENCODING 253
SWIDTH 272 0
DWIDTH 7 0
BBX 2 13 2 -1
BITMAP
c0
c0
c0
c0
c0
c0
c0
c0
c0
c0
c0
c0
c0
ENDCHAR
STARTCHAR DblVertBarExten
ENCODING 254
SWIDTH 516 0
DWIDTH 12 0
BBX 8 13 2 -1
BITMAP
c3
c3
c3
c3
c3
c3
c3
c3
c3
c3
c3
c3
c3
ENDCHAR
STARTCHAR Coproduct
ENCODING 255
SWIDTH 733 0
DWIDTH 18 0
BBX 18 16 0 0
BITMAP
fe1fc0
380700
380700
380700
380700
380700
380700
380700
380700
380700
380700
380700
380700
380700
380700
ffffc0
ENDCHAR
ENDFONT
